<svg xmlns="http://www.w3.org/2000/svg" viewBox="0 0 1000 500" width="500"><path fill="#86C540" d="M419.671 403.727c14.757-16.554 22.561-40.735 22.561-73.316V148.37h-31.174v28.48h-.385c-5.905-11.029-14.113-19.303-24.631-24.823-10.524-5.515-22.069-8.275-34.637-8.275-17.193 0-31.691 3.271-43.49 9.814-11.804 6.543-21.299 14.95-28.479 25.209-7.187 10.264-12.315 21.552-15.395 33.868-3.079 12.315-4.618 24.378-4.618 36.177 0 13.603 1.858 26.496 5.581 38.679 3.716 12.19 9.296 22.9 16.741 32.137 7.439 9.236 16.675 16.548 27.71 21.936 11.035 5.388 23.994 8.082 38.877 8.082 6.158 0 12.376-.769 18.665-2.309 6.291-1.539 12.19-3.782 17.71-6.735 5.514-2.946 10.452-6.669 14.817-11.16 4.36-4.487 7.95-9.813 10.776-15.972h.757v13.084c0 11.293-1.094 21.553-3.272 30.79-2.182 9.237-5.712 17.127-10.583 23.668-4.877 6.543-11.035 11.672-18.474 15.395-7.445 3.717-16.549 5.581-27.325 5.581-5.389 0-11.035-.579-16.935-1.732-2.13-.416-4.2-.928-6.211-1.53-2.188-.772-4.358-1.557-6.51-2.356-.2-.085-.399-.172-.598-.259v.036c-84.527-31.572-140.157-85.246-140.157-146.152 0-97.147 141.523-175.899 316.1-175.899 97.253 0 184.451 22.15 242.436 60.593C676.24 70.283 562.757 25.022 433.005 25 234.282 24.965 73.17 125.674 73.153 249.938c-.012 84.821 75.042 158.697 185.893 197.058 88.919 3.044 134.048-13.459 160.625-43.269zm-13.423-132.201c-2.182 9.236-5.58 17.512-10.199 24.823-4.617 7.314-10.715 13.219-18.28 17.703-7.571 4.493-16.742 6.735-27.517 6.735-10.777 0-19.761-2.242-26.941-6.735-7.186-4.484-12.959-10.39-17.319-17.703-4.366-7.311-7.444-15.454-9.237-24.439-1.797-8.978-2.694-17.956-2.694-26.94 0-9.489 1.088-18.6 3.271-27.326 2.178-8.719 5.641-16.417 10.392-23.092 4.745-6.669 10.837-11.991 18.281-15.972 7.439-3.975 16.417-5.965 26.941-5.965 10.259 0 18.984 2.057 26.17 6.158 7.18 4.107 13.019 9.561 17.511 16.356 4.486 6.801 7.758 14.432 9.814 22.899 2.051 8.467 3.079 17.066 3.079 25.786 0 9.238-1.095 18.475-3.272 27.712zm28.601 150.959c-18.854 17.113-52.532 36.647-98.397 44.316 30.707 5.339 63.065 8.194 96.49 8.198 129.236.025 242.425-45.091 305.881-109.055-57.984 38.206-144.83 59.951-241.728 59.951-23.018.002-40.626-.809-62.246-3.41zm198.991-74.577h-46.965V189.705h-58.922v-40.234h164.81v40.234H633.84v158.203zm130.333 0h-46.967V149.471h144.988v40.234h-98.021v37.128h85.803v40.233h-85.803v80.842zM469.554 100.031h32.714v247.313h-32.714V100.031zm433.229 55.258h-7.348V174.4h-6.418v-19.111h-7.347v-5.52h21.112v5.52zm2.864-5.52h9.453l4.242 16.421h.069l4.243-16.421h9.453V174.4h-6.038v-18.697h-.068l-5.175 18.697h-4.897l-5.177-18.697h-.069V174.4h-6.036v-24.631z"/></svg>